<?xml version="1.0" standalone="yes"?>

<svg version="1.1" viewBox="0.0 0.0 433.0 100.0" fill="none" stroke="none" stroke-linecap="square" stroke-miterlimit="10" xmlns="http://www.w3.org/2000/svg" xmlns:xlink="http://www.w3.org/1999/xlink"><clipPath id="p.0"><path d="m0 0l433.0 0l0 100.0l-433.0 0l0 -100.0z" clip-rule="nonzero"></path></clipPath><g clip-path="url(#p.0)"><path fill="#000000" fill-opacity="0.0" d="m0 0l433.0 0l0 100.0l-433.0 0z" fill-rule="nonzero"></path><path fill="#000000" fill-opacity="0.0" d="m-1.1548556E-5 -12.0l366.99213 0l0 123.55905l-366.99213 0z" fill-rule="nonzero"></path><path fill="#ff5722" d="m35.90801 74.75312q-12.875 0 -20.46875 -8.46875l3.90625 -5.046875q3.28125 3.6875 7.6875 5.65625q4.40625 1.953125 9.125 1.953125q5.75 0 9.140625 -2.5625q3.40625 -2.5625 3.40625 -6.640625q0 -6.328125 -9.90625 -9.046875q-11.765625 -3.109375 -15.015625 -4.953125q-3.234375 -1.84375 -4.953125 -4.59375q-1.71875 -2.765625 -1.71875 -6.609375q0 -6.40625 5.15625 -10.59375q5.171875 -4.203125 13.171875 -4.203125q12.0 0 18.953125 7.4375l-4.0 4.875q-5.765625 -6.390625 -15.4375 -6.390625q-4.796875 0 -7.890625 2.328125q-3.078125 2.3125 -3.078125 6.140625q0 2.8125 2.5625 4.765625q2.5625 1.953125 7.4375 3.15625q11.359375 3.125 14.671875 5.125q3.328125 2.0 5.125 4.921875q1.8125 2.921875 1.8125 7.078125q0 7.359375 -5.359375 11.515625q-5.359375 4.15625 -14.328125 4.15625zm48.411205 0q-8.25 0 -13.046875 -6.796875l0 20.5625l-6.0 0l0 -53.359375l6.0 0l0 5.765625q2.078125 -2.96875 5.515625 -4.84375q3.4375 -1.875 7.53125 -1.875q7.75 0 12.46875 5.4375q4.71875 5.4375 4.71875 14.796875q0 9.28125 -4.6875 14.796875q-4.671875 5.515625 -12.5 5.515625zm-1.53125 -5.359375q5.609375 0 9.0 -4.078125q3.40625 -4.078125 3.40625 -10.875q0 -6.640625 -3.359375 -10.75q-3.359375 -4.125 -9.046875 -4.125q-3.59375 0 -6.765625 1.796875q-3.15625 1.796875 -4.75 4.359375l0 17.4375q1.59375 2.5625 4.75 4.40625q3.171875 1.828125 6.765625 1.828125zm45.68184 5.359375q-8.71875 0 -14.203125 -5.671875q-5.46875 -5.6875 -5.46875 -14.640625q0 -8.5625 5.4375 -14.390625q5.4375 -5.84375 13.59375 -5.84375q8.328125 0 13.4375 5.765625q5.125 5.75 5.125 14.953125l0 1.515625l-31.28125 0q0.328125 5.921875 4.28125 9.640625q3.953125 3.71875 9.640625 3.71875q7.046875 0 11.921875 -4.875l2.875 3.921875q-5.921875 5.90625 -15.359375 5.90625zm12.0 -22.71875q0 -5.359375 -3.515625 -9.109375q-3.515625 -3.765625 -9.203125 -3.765625q-5.359375 0 -8.921875 3.765625q-3.5625 3.75 -3.71875 9.109375l25.359375 0zm32.649338 22.71875q-8.484375 0 -13.890625 -5.75q-5.390625 -5.765625 -5.390625 -14.5625q0 -8.71875 5.390625 -14.46875q5.40625 -5.765625 13.890625 -5.765625q8.953125 0 14.15625 6.71875l-4.0 3.671875q-3.6875 -5.03125 -9.84375 -5.03125q-5.921875 0 -9.640625 4.125q-3.71875 4.109375 -3.71875 10.75q0 6.71875 3.671875 10.84375q3.6875 4.109375 9.6875 4.109375q6.078125 0 9.84375 -5.03125l4.0 3.671875q-5.203125 6.71875 -14.15625 6.71875zm32.31871 0q-8.5625 0 -8.5625 -9.03125l0 -25.28125l-6.40625 0l0 -5.28125l6.40625 0l0 -10.5625l6.0 0l0 10.5625l7.84375 0l0 5.28125l-7.84375 0l0 24.0q0 2.15625 0.953125 3.5625q0.96875 1.390625 2.96875 1.390625q2.46875 0 4.078125 -1.59375l1.75 4.484375q-2.46875 2.46875 -7.1875 2.46875zm37.9106 -0.953125l0 -4.40625q-4.875 5.359375 -12.796875 5.359375q-5.84375 0 -9.6875 -3.671875q-3.828125 -3.6875 -3.828125 -9.125q0 -5.59375 3.796875 -9.15625q3.796875 -3.5625 9.71875 -3.5625q8.328125 0 12.796875 5.28125l0 -6.953125q0 -3.921875 -2.765625 -6.046875q-2.75 -2.125 -6.984375 -2.125q-6.8125 0 -11.84375 5.359375l-2.796875 -4.15625q6.15625 -6.390625 15.4375 -6.390625q7.109375 0 11.03125 3.4375q3.921875 3.4375 3.921875 9.59375l0 26.5625l-6.0 0zm-10.640625 -3.359375q7.125 0 10.640625 -4.796875l0 -7.28125q-3.515625 -4.796875 -10.640625 -4.796875q-4.234375 0 -6.875 2.359375q-2.640625 2.359375 -2.640625 6.109375q0 3.6875 2.640625 6.046875q2.640625 2.359375 6.875 2.359375zm45.691223 4.3125q-8.484375 0 -13.890625 -5.75q-5.390625 -5.765625 -5.390625 -14.5625q0 -8.71875 5.390625 -14.46875q5.40625 -5.765625 13.890625 -5.765625q8.953125 0 14.15625 6.71875l-4.0 3.671875q-3.6875 -5.03125 -9.84375 -5.03125q-5.921875 0 -9.640625 4.125q-3.71875 4.109375 -3.71875 10.75q0 6.71875 3.671875 10.84375q3.6875 4.109375 9.6875 4.109375q6.078125 0 9.84375 -5.03125l4.0 3.671875q-5.203125 6.71875 -14.15625 6.71875zm22.5531 -0.953125l0 -53.359375l6.0 0l0 53.359375l-6.0 0zm35.4375 0.953125q-8.71875 0 -14.203125 -5.671875q-5.46875 -5.6875 -5.46875 -14.640625q0 -8.5625 5.4375 -14.390625q5.4375 -5.84375 13.59375 -5.84375q8.328125 0 13.4375 5.765625q5.125 5.75 5.125 14.953125l0 1.515625l-31.28125 0q0.328125 5.921875 4.28125 9.640625q3.953125 3.71875 9.640625 3.71875q7.046875 0 11.921875 -4.875l2.875 3.921875q-5.921875 5.90625 -15.359375 5.90625zm12.0 -22.71875q0 -5.359375 -3.515625 -9.109375q-3.515625 -3.765625 -9.203125 -3.765625q-5.359375 0 -8.921875 3.765625q-3.5625 3.75 -3.71875 9.109375l25.359375 0z" fill-rule="nonzero"></path><path fill="#000000" fill-opacity="0.0" d="m355.56693 44.856956l104.1575 0l0 44.409447l-104.1575 0z" fill-rule="nonzero"></path><path fill="#434343" d="m366.44193 74.306404l0 -16.015625l7.125 0q2.046875 0 3.265625 1.125q1.21875 1.109375 1.21875 2.96875q0 1.40625 -0.78125 2.390625q-0.78125 0.984375 -2.015625 1.28125q1.265625 0.1875 2.1875 1.34375q0.921875 1.140625 0.921875 2.59375q0 1.953125 -1.234375 3.140625q-1.234375 1.171875 -3.390625 1.171875l-7.296875 0zm6.78125 -9.078125q1.375 0 2.0625 -0.71875q0.703125 -0.734375 0.703125 -1.84375q0 -1.078125 -0.703125 -1.828125q-0.6875 -0.765625 -2.0625 -0.765625l-4.796875 0l0 5.15625l4.796875 0zm0.109375 7.296875q1.40625 0 2.1875 -0.71875q0.78125 -0.734375 0.78125 -2.03125q0 -1.234375 -0.8125 -2.0q-0.8125 -0.765625 -2.15625 -0.765625l-4.90625 0l0 5.515625l4.90625 0zm8.205353 1.78125l0 -16.015625l10.484375 0l0 1.78125l-8.5 0l0 5.15625l8.328125 0l0 1.78125l-8.328125 0l0 5.515625l8.5 0l0 1.78125l-10.484375 0zm17.60907 0l0 -14.234375l-5.0625 0l0 -1.78125l12.140625 0l0 1.78125l-5.078125 0l0 14.234375l-2.0 0zm21.148712 0l-1.421875 -3.546875l-7.96875 0l-1.40625 3.546875l-2.28125 0l6.421875 -16.015625l2.484375 0l6.453125 16.015625l-2.28125 0zm-5.40625 -13.9375l-3.40625 8.609375l6.796875 0l-3.390625 -8.609375z" fill-rule="nonzero"></path></g></svg>

